<svg xmlns="http://www.w3.org/2000/svg" viewBox="0 0 1024 1024">
  <defs>
    <linearGradient id="bg" x1="144" y1="88" x2="880" y2="936" gradientUnits="userSpaceOnUse">
      <stop offset="0" stop-color="#101820"/>
      <stop offset="0.55" stop-color="#0B1117"/>
      <stop offset="1" stop-color="#111827"/>
    </linearGradient>
    <linearGradient id="mark" x1="274" y1="238" x2="790" y2="786" gradientUnits="userSpaceOnUse">
      <stop offset="0" stop-color="#79C0FF"/>
      <stop offset="0.48" stop-color="#38D6C5"/>
      <stop offset="1" stop-color="#2ECC71"/>
    </linearGradient>
  </defs>
  <rect width="1024" height="1024" rx="236" fill="url(#bg)"/>
  <path
    d="M310 246c0-34 28-62 62-62s62 28 62 62v407h198c34 0 62 28 62 62s-28 62-62 62H372c-34 0-62-28-62-62V246Z"
    fill="url(#mark)"
  />
  <path
    d="M562 321 724 512 562 703"
    fill="none"
    stroke="#F8FAFC"
    stroke-width="72"
    stroke-linecap="round"
    stroke-linejoin="round"
    opacity="0.96"
  />
  <path
    d="M310 246c0-34 28-62 62-62s62 28 62 62v407h198c34 0 62 28 62 62s-28 62-62 62H372c-34 0-62-28-62-62V246Z"
    fill="none"
    stroke="#FFFFFF"
    stroke-opacity="0.10"
    stroke-width="16"
  />
</svg>
